<mxfile host="app.diagrams.net" modified="2022-06-28T07:39:38.661Z" agent="5.0 (Windows NT 10.0; Win64; x64) AppleWebKit/537.36 (KHTML, like Gecko) Chrome/102.0.0.0 Safari/537.36" etag="n0aDkeLW_wnNOtYtylWz" version="20.0.3" type="github">
  <diagram name="Page-1" id="74e2e168-ea6b-b213-b513-2b3c1d86103e">
    <mxGraphModel dx="2062" dy="1122" grid="1" gridSize="10" guides="1" tooltips="1" connect="1" arrows="1" fold="1" page="1" pageScale="1" pageWidth="1100" pageHeight="850" background="none" math="0" shadow="1">
      <root>
        <mxCell id="0" />
        <mxCell id="1" parent="0" />
        <mxCell id="aHq7--bIG2z-aBzVCNLE-1" value="create card" style="swimlane;html=1;childLayout=stackLayout;startSize=20;rounded=0;shadow=0;labelBackgroundColor=none;strokeWidth=1;fontFamily=Verdana;fontSize=8;align=center;" vertex="1" parent="1">
          <mxGeometry x="70" y="40" width="980" height="1230" as="geometry">
            <mxRectangle x="70" y="40" width="190" height="30" as="alternateBounds" />
          </mxGeometry>
        </mxCell>
        <mxCell id="aHq7--bIG2z-aBzVCNLE-2" value="OCMB APP" style="swimlane;html=1;startSize=20;" vertex="1" parent="aHq7--bIG2z-aBzVCNLE-1">
          <mxGeometry y="20" width="240" height="1210" as="geometry">
            <mxRectangle x="40" y="20" width="40" height="730" as="alternateBounds" />
          </mxGeometry>
        </mxCell>
        <mxCell id="aHq7--bIG2z-aBzVCNLE-3" value="&lt;div&gt;Application for create card&lt;/div&gt;" style="rounded=1;whiteSpace=wrap;html=1;" vertex="1" parent="aHq7--bIG2z-aBzVCNLE-2">
          <mxGeometry x="60" y="167" width="120" height="60" as="geometry" />
        </mxCell>
        <mxCell id="aHq7--bIG2z-aBzVCNLE-50" style="edgeStyle=orthogonalEdgeStyle;rounded=0;orthogonalLoop=1;jettySize=auto;html=1;exitX=0.5;exitY=1;exitDx=0;exitDy=0;entryX=0.5;entryY=0;entryDx=0;entryDy=0;" edge="1" parent="aHq7--bIG2z-aBzVCNLE-2" source="aHq7--bIG2z-aBzVCNLE-4" target="aHq7--bIG2z-aBzVCNLE-6">
          <mxGeometry relative="1" as="geometry" />
        </mxCell>
        <mxCell id="aHq7--bIG2z-aBzVCNLE-4" value="&lt;div&gt;&amp;nbsp;&lt;span style=&quot;background-color: initial;&quot;&gt;Create card page&lt;/span&gt;&lt;/div&gt;" style="whiteSpace=wrap;html=1;rounded=1;" vertex="1" parent="aHq7--bIG2z-aBzVCNLE-2">
          <mxGeometry x="70" y="307" width="120" height="60" as="geometry" />
        </mxCell>
        <mxCell id="aHq7--bIG2z-aBzVCNLE-6" value="&lt;div&gt;Fill i&lt;span style=&quot;background-color: initial;&quot;&gt;nformation&lt;/span&gt;&lt;/div&gt;" style="whiteSpace=wrap;html=1;" vertex="1" parent="aHq7--bIG2z-aBzVCNLE-2">
          <mxGeometry x="70" y="453" width="120" height="60" as="geometry" />
        </mxCell>
        <mxCell id="aHq7--bIG2z-aBzVCNLE-7" value="&lt;div&gt;create card successful&lt;/div&gt;" style="whiteSpace=wrap;html=1;rounded=0;" vertex="1" parent="aHq7--bIG2z-aBzVCNLE-2">
          <mxGeometry x="70" y="1077" width="120" height="60" as="geometry" />
        </mxCell>
        <mxCell id="aHq7--bIG2z-aBzVCNLE-8" value="OCMB API" style="swimlane;html=1;startSize=20;" vertex="1" parent="aHq7--bIG2z-aBzVCNLE-1">
          <mxGeometry x="240" y="20" width="270" height="1210" as="geometry">
            <mxRectangle x="80" y="20" width="40" height="730" as="alternateBounds" />
          </mxGeometry>
        </mxCell>
        <mxCell id="aHq7--bIG2z-aBzVCNLE-9" value="read create card configure&amp;nbsp;" style="rounded=1;whiteSpace=wrap;html=1;" vertex="1" parent="aHq7--bIG2z-aBzVCNLE-8">
          <mxGeometry x="85" y="167" width="120" height="60" as="geometry" />
        </mxCell>
        <mxCell id="aHq7--bIG2z-aBzVCNLE-14" style="edgeStyle=orthogonalEdgeStyle;rounded=0;orthogonalLoop=1;jettySize=auto;html=1;exitX=0.5;exitY=1;exitDx=0;exitDy=0;" edge="1" parent="aHq7--bIG2z-aBzVCNLE-8" source="aHq7--bIG2z-aBzVCNLE-15" target="aHq7--bIG2z-aBzVCNLE-18">
          <mxGeometry relative="1" as="geometry" />
        </mxCell>
        <mxCell id="aHq7--bIG2z-aBzVCNLE-15" value="save data" style="rounded=1;whiteSpace=wrap;html=1;" vertex="1" parent="aHq7--bIG2z-aBzVCNLE-8">
          <mxGeometry x="80" y="600" width="120" height="60" as="geometry" />
        </mxCell>
        <mxCell id="aHq7--bIG2z-aBzVCNLE-16" style="edgeStyle=orthogonalEdgeStyle;rounded=0;orthogonalLoop=1;jettySize=auto;html=1;exitX=0.5;exitY=1;exitDx=0;exitDy=0;entryX=0.5;entryY=0;entryDx=0;entryDy=0;" edge="1" parent="aHq7--bIG2z-aBzVCNLE-8" source="aHq7--bIG2z-aBzVCNLE-18" target="aHq7--bIG2z-aBzVCNLE-19">
          <mxGeometry relative="1" as="geometry" />
        </mxCell>
        <mxCell id="aHq7--bIG2z-aBzVCNLE-17" value="has token" style="edgeLabel;html=1;align=center;verticalAlign=middle;resizable=0;points=[];" vertex="1" connectable="0" parent="aHq7--bIG2z-aBzVCNLE-16">
          <mxGeometry x="-0.3333" y="-1" relative="1" as="geometry">
            <mxPoint as="offset" />
          </mxGeometry>
        </mxCell>
        <mxCell id="aHq7--bIG2z-aBzVCNLE-18" value="&lt;div&gt;Token verification&lt;/div&gt;" style="rhombus;whiteSpace=wrap;html=1;" vertex="1" parent="aHq7--bIG2z-aBzVCNLE-8">
          <mxGeometry x="100" y="724" width="80" height="80" as="geometry" />
        </mxCell>
        <mxCell id="aHq7--bIG2z-aBzVCNLE-19" value="get token" style="rounded=0;whiteSpace=wrap;html=1;" vertex="1" parent="aHq7--bIG2z-aBzVCNLE-8">
          <mxGeometry x="80" y="864" width="120" height="60" as="geometry" />
        </mxCell>
        <mxCell id="aHq7--bIG2z-aBzVCNLE-20" value="get response" style="whiteSpace=wrap;html=1;rounded=0;" vertex="1" parent="aHq7--bIG2z-aBzVCNLE-8">
          <mxGeometry x="80" y="1077" width="120" height="60" as="geometry" />
        </mxCell>
        <mxCell id="aHq7--bIG2z-aBzVCNLE-21" style="edgeStyle=orthogonalEdgeStyle;rounded=0;orthogonalLoop=1;jettySize=auto;html=1;exitX=0.5;exitY=1;exitDx=0;exitDy=0;" edge="1" parent="aHq7--bIG2z-aBzVCNLE-8">
          <mxGeometry relative="1" as="geometry">
            <mxPoint x="145" y="120" as="sourcePoint" />
            <mxPoint x="145" y="120" as="targetPoint" />
          </mxGeometry>
        </mxCell>
        <mxCell id="aHq7--bIG2z-aBzVCNLE-54" style="edgeStyle=orthogonalEdgeStyle;rounded=0;orthogonalLoop=1;jettySize=auto;html=1;exitX=0.5;exitY=1;exitDx=0;exitDy=0;" edge="1" parent="aHq7--bIG2z-aBzVCNLE-8" source="aHq7--bIG2z-aBzVCNLE-51" target="aHq7--bIG2z-aBzVCNLE-15">
          <mxGeometry relative="1" as="geometry" />
        </mxCell>
        <mxCell id="aHq7--bIG2z-aBzVCNLE-51" value="check data" style="rhombus;whiteSpace=wrap;html=1;" vertex="1" parent="aHq7--bIG2z-aBzVCNLE-8">
          <mxGeometry x="100" y="443" width="80" height="80" as="geometry" />
        </mxCell>
        <mxCell id="aHq7--bIG2z-aBzVCNLE-37" style="edgeStyle=orthogonalEdgeStyle;rounded=0;orthogonalLoop=1;jettySize=auto;html=1;exitX=1;exitY=0.5;exitDx=0;exitDy=0;entryX=0;entryY=0.5;entryDx=0;entryDy=0;" edge="1" parent="aHq7--bIG2z-aBzVCNLE-1" source="aHq7--bIG2z-aBzVCNLE-18" target="aHq7--bIG2z-aBzVCNLE-23">
          <mxGeometry relative="1" as="geometry" />
        </mxCell>
        <mxCell id="aHq7--bIG2z-aBzVCNLE-38" value="&lt;div&gt;&lt;span style=&quot;font-size: 11px;&quot;&gt;request token&lt;/span&gt;&lt;/div&gt;" style="edgeLabel;html=1;align=center;verticalAlign=middle;resizable=0;points=[];" vertex="1" connectable="0" parent="aHq7--bIG2z-aBzVCNLE-37">
          <mxGeometry x="-0.1875" y="1" relative="1" as="geometry">
            <mxPoint as="offset" />
          </mxGeometry>
        </mxCell>
        <mxCell id="aHq7--bIG2z-aBzVCNLE-39" style="edgeStyle=orthogonalEdgeStyle;rounded=0;orthogonalLoop=1;jettySize=auto;html=1;exitX=0.5;exitY=1;exitDx=0;exitDy=0;entryX=1;entryY=0.5;entryDx=0;entryDy=0;" edge="1" parent="aHq7--bIG2z-aBzVCNLE-1" source="aHq7--bIG2z-aBzVCNLE-23" target="aHq7--bIG2z-aBzVCNLE-19">
          <mxGeometry relative="1" as="geometry" />
        </mxCell>
        <mxCell id="aHq7--bIG2z-aBzVCNLE-40" value="response token" style="edgeLabel;html=1;align=center;verticalAlign=middle;resizable=0;points=[];" vertex="1" connectable="0" parent="aHq7--bIG2z-aBzVCNLE-39">
          <mxGeometry x="0.0685" y="2" relative="1" as="geometry">
            <mxPoint as="offset" />
          </mxGeometry>
        </mxCell>
        <mxCell id="aHq7--bIG2z-aBzVCNLE-41" style="edgeStyle=orthogonalEdgeStyle;rounded=0;orthogonalLoop=1;jettySize=auto;html=1;exitX=0.5;exitY=1;exitDx=0;exitDy=0;entryX=0;entryY=0.5;entryDx=0;entryDy=0;" edge="1" parent="aHq7--bIG2z-aBzVCNLE-1" source="aHq7--bIG2z-aBzVCNLE-19" target="aHq7--bIG2z-aBzVCNLE-24">
          <mxGeometry relative="1" as="geometry" />
        </mxCell>
        <mxCell id="aHq7--bIG2z-aBzVCNLE-42" value="post" style="edgeLabel;html=1;align=center;verticalAlign=middle;resizable=0;points=[];" vertex="1" connectable="0" parent="aHq7--bIG2z-aBzVCNLE-41">
          <mxGeometry x="0.119" relative="1" as="geometry">
            <mxPoint as="offset" />
          </mxGeometry>
        </mxCell>
        <mxCell id="aHq7--bIG2z-aBzVCNLE-43" style="edgeStyle=orthogonalEdgeStyle;rounded=0;orthogonalLoop=1;jettySize=auto;html=1;exitX=0.5;exitY=1;exitDx=0;exitDy=0;entryX=1;entryY=0.5;entryDx=0;entryDy=0;" edge="1" parent="aHq7--bIG2z-aBzVCNLE-1" source="aHq7--bIG2z-aBzVCNLE-24" target="aHq7--bIG2z-aBzVCNLE-20">
          <mxGeometry relative="1" as="geometry" />
        </mxCell>
        <mxCell id="aHq7--bIG2z-aBzVCNLE-44" value="response card info" style="edgeLabel;html=1;align=center;verticalAlign=middle;resizable=0;points=[];" vertex="1" connectable="0" parent="aHq7--bIG2z-aBzVCNLE-43">
          <mxGeometry x="0.1715" y="1" relative="1" as="geometry">
            <mxPoint as="offset" />
          </mxGeometry>
        </mxCell>
        <mxCell id="aHq7--bIG2z-aBzVCNLE-45" value="" style="edgeStyle=orthogonalEdgeStyle;rounded=0;orthogonalLoop=1;jettySize=auto;html=1;" edge="1" parent="aHq7--bIG2z-aBzVCNLE-1" source="aHq7--bIG2z-aBzVCNLE-20" target="aHq7--bIG2z-aBzVCNLE-7">
          <mxGeometry relative="1" as="geometry" />
        </mxCell>
        <mxCell id="aHq7--bIG2z-aBzVCNLE-22" value="PISMO API" style="swimlane;html=1;startSize=20;" vertex="1" parent="aHq7--bIG2z-aBzVCNLE-1">
          <mxGeometry x="510" y="20" width="220" height="1210" as="geometry">
            <mxRectangle x="120" y="20" width="40" height="730" as="alternateBounds" />
          </mxGeometry>
        </mxCell>
        <mxCell id="aHq7--bIG2z-aBzVCNLE-23" value="request token" style="rounded=0;whiteSpace=wrap;html=1;" vertex="1" parent="aHq7--bIG2z-aBzVCNLE-22">
          <mxGeometry x="70" y="734" width="120" height="60" as="geometry" />
        </mxCell>
        <mxCell id="aHq7--bIG2z-aBzVCNLE-24" value="create card" style="whiteSpace=wrap;html=1;rounded=0;" vertex="1" parent="aHq7--bIG2z-aBzVCNLE-22">
          <mxGeometry x="70" y="978" width="120" height="60" as="geometry" />
        </mxCell>
        <mxCell id="aHq7--bIG2z-aBzVCNLE-25" style="edgeStyle=orthogonalEdgeStyle;rounded=0;orthogonalLoop=1;jettySize=auto;html=1;exitX=1;exitY=0.5;exitDx=0;exitDy=0;entryX=0;entryY=0.5;entryDx=0;entryDy=0;" edge="1" parent="aHq7--bIG2z-aBzVCNLE-1" source="aHq7--bIG2z-aBzVCNLE-3" target="aHq7--bIG2z-aBzVCNLE-9">
          <mxGeometry relative="1" as="geometry" />
        </mxCell>
        <mxCell id="aHq7--bIG2z-aBzVCNLE-26" value="request" style="edgeLabel;html=1;align=center;verticalAlign=middle;resizable=0;points=[];" vertex="1" connectable="0" parent="aHq7--bIG2z-aBzVCNLE-25">
          <mxGeometry x="0.1448" relative="1" as="geometry">
            <mxPoint as="offset" />
          </mxGeometry>
        </mxCell>
        <mxCell id="aHq7--bIG2z-aBzVCNLE-27" style="edgeStyle=orthogonalEdgeStyle;rounded=0;orthogonalLoop=1;jettySize=auto;html=1;exitX=0.5;exitY=1;exitDx=0;exitDy=0;entryX=1;entryY=0.5;entryDx=0;entryDy=0;" edge="1" parent="aHq7--bIG2z-aBzVCNLE-1" source="aHq7--bIG2z-aBzVCNLE-9" target="aHq7--bIG2z-aBzVCNLE-4">
          <mxGeometry relative="1" as="geometry" />
        </mxCell>
        <mxCell id="aHq7--bIG2z-aBzVCNLE-28" value="get" style="edgeLabel;html=1;align=center;verticalAlign=middle;resizable=0;points=[];" vertex="1" connectable="0" parent="aHq7--bIG2z-aBzVCNLE-27">
          <mxGeometry x="-0.1016" y="1" relative="1" as="geometry">
            <mxPoint as="offset" />
          </mxGeometry>
        </mxCell>
        <mxCell id="aHq7--bIG2z-aBzVCNLE-46" value="OCMB Backend" style="swimlane;html=1;startSize=20;" vertex="1" parent="aHq7--bIG2z-aBzVCNLE-1">
          <mxGeometry x="730" y="20" width="250" height="1210" as="geometry">
            <mxRectangle x="120" y="20" width="40" height="730" as="alternateBounds" />
          </mxGeometry>
        </mxCell>
        <mxCell id="aHq7--bIG2z-aBzVCNLE-47" value="&lt;div&gt;Configure create card process&lt;/div&gt;" style="rounded=1;whiteSpace=wrap;html=1;" vertex="1" parent="aHq7--bIG2z-aBzVCNLE-46">
          <mxGeometry x="70" y="60" width="120" height="60" as="geometry" />
        </mxCell>
        <mxCell id="aHq7--bIG2z-aBzVCNLE-48" style="edgeStyle=orthogonalEdgeStyle;rounded=0;orthogonalLoop=1;jettySize=auto;html=1;exitX=0;exitY=0.5;exitDx=0;exitDy=0;entryX=0.5;entryY=0;entryDx=0;entryDy=0;" edge="1" parent="aHq7--bIG2z-aBzVCNLE-1" source="aHq7--bIG2z-aBzVCNLE-47" target="aHq7--bIG2z-aBzVCNLE-9">
          <mxGeometry relative="1" as="geometry">
            <mxPoint x="445" y="110" as="targetPoint" />
          </mxGeometry>
        </mxCell>
        <mxCell id="aHq7--bIG2z-aBzVCNLE-49" value="save&lt;br&gt;" style="edgeLabel;html=1;align=center;verticalAlign=middle;resizable=0;points=[];" vertex="1" connectable="0" parent="aHq7--bIG2z-aBzVCNLE-48">
          <mxGeometry x="0.4085" y="-3" relative="1" as="geometry">
            <mxPoint as="offset" />
          </mxGeometry>
        </mxCell>
        <mxCell id="aHq7--bIG2z-aBzVCNLE-52" style="edgeStyle=orthogonalEdgeStyle;rounded=0;orthogonalLoop=1;jettySize=auto;html=1;exitX=1;exitY=0.5;exitDx=0;exitDy=0;" edge="1" parent="aHq7--bIG2z-aBzVCNLE-1" source="aHq7--bIG2z-aBzVCNLE-6" target="aHq7--bIG2z-aBzVCNLE-51">
          <mxGeometry relative="1" as="geometry" />
        </mxCell>
        <mxCell id="aHq7--bIG2z-aBzVCNLE-53" value="post" style="edgeLabel;html=1;align=center;verticalAlign=middle;resizable=0;points=[];" vertex="1" connectable="0" parent="aHq7--bIG2z-aBzVCNLE-52">
          <mxGeometry x="0.1407" y="-2" relative="1" as="geometry">
            <mxPoint as="offset" />
          </mxGeometry>
        </mxCell>
      </root>
    </mxGraphModel>
  </diagram>
</mxfile>
